# xmcd CD database file
#
# Track frame offsets:
#	182
#	22227
#	45350
#	68837
#	86125
#	102120
#	118862
#	137892
#	154182
#
# Disc length: 2245 seconds
#
# Revision: 4
# Processed by: cddbd v1.4PL0 Copyright (c) Steve Scherf et al.
# Submitted via: CDex 1.50Beta7
#
DISCID=7908c309
DTITLE=Paul Butterfield Blues - Better Days
DYEAR=1973
DGENRE=Blues
TTITLE0=New Walkin' Blues
TTITLE1=Please Send Me Someone To Love
TTITLE2=Broke My Baby's Heart
TTITLE3=Done a Lot of Wrong Things
TTITLE4=Baby Please Don't Go
TTITLE5=Buried Alive in the Blues
TTITLE6=Rule the Road
TTITLE7=Nobody's Fault But Mine
TTITLE8=Highway
EXTD=YEAR: 1973
EXTT0=
EXTT1=
EXTT2=
EXTT3=
EXTT4=
EXTT5=
EXTT6=
EXTT7=
EXTT8=
PLAYORDER=
